<svg xmlns="http://www.w3.org/2000/svg" version="1.1" xmlns:xlink="http://www.w3.org/1999/xlink" width="1500" height="620" viewBox="0 0 1500 620"><svg xml:space="preserve" width="1500" height="620" data-version="2" data-id="lg_kqqDZVzxivFjuGMDTL" viewBox="0 0 620 620" x="0" y="0"><rect width="100%" height="100%" fill="transparent"></rect><circle r="290.896" fill="#0a83e8" stroke="#fff6f0" stroke-width="26" paint-order="stroke" transform="translate(310 310)"></circle><path fill="#fff6f0" d="M469.084 170.316a15.52 15.52 0 0 0-15.52-15.52H158.675a15.52 15.52 0 0 0-15.52 15.52v271.607c0 8.536 6.983 15.52 15.52 15.52h294.887a15.52 15.52 0 0 0 15.52-15.52zm-31.041 3.88a7.76 7.76 0 1 1 0 15.52 7.76 7.76 0 0 1 0-15.52m-23.28 0a7.76 7.76 0 1 1 0 15.52 7.76 7.76 0 0 1 0-15.52m-23.281 0a7.76 7.76 0 1 1 0 15.52 7.76 7.76 0 0 1 0-15.52m62.081 267.727H158.676V224.637h294.887z"></path><path fill="#fff6f0" d="M337.16 310v-23.281a31.04 31.04 0 0 0-62.081 0v23.28h-15.52v85.363h93.122V310zm-46.561 0v-23.281a15.52 15.52 0 0 1 31.04 0v23.28z"></path></svg></svg>